<svg width="54" height="54" viewBox="0 0 54 54" fill="none" xmlns="http://www.w3.org/2000/svg">
<path d="M8.97501 32.986L5.55504 29.5659C4.16004 28.1709 4.16004 25.8759 5.55504 24.4809L8.97501 21.0609C9.56001 20.4759 10.0325 19.3284 10.0325 18.5184V13.6808C10.0325 11.7008 11.6525 10.0809 13.6325 10.0809H18.47C19.28 10.0809 20.4275 9.60842 21.0125 9.02342L24.4325 5.60338C25.8275 4.20838 28.1225 4.20838 29.5175 5.60338L32.9376 9.02342C33.5226 9.60842 34.67 10.0809 35.48 10.0809H40.3176C42.2976 10.0809 43.9175 11.7008 43.9175 13.6808V18.5184C43.9175 19.3284 44.39 20.4759 44.975 21.0609L48.3951 24.4809C49.7901 25.8759 49.7901 28.1709 48.3951 29.5659L44.975 32.986C44.39 33.571 43.9175 34.7185 43.9175 35.5285V40.3658C43.9175 42.3458 42.2976 43.966 40.3176 43.966H35.48C34.67 43.966 33.5226 44.4384 32.9376 45.0234L29.5175 48.4435C28.1225 49.8385 25.8275 49.8385 24.4325 48.4435L21.0125 45.0234C20.4275 44.4384 19.28 43.966 18.47 43.966H13.6325C11.6525 43.966 10.0325 42.3458 10.0325 40.3658V35.5285C10.0325 34.696 9.56001 33.5485 8.97501 32.986Z" stroke="white" stroke-width="3" stroke-linecap="round" stroke-linejoin="round"/>
<path d="M20.25 33.75L33.75 20.25" stroke="white" stroke-width="3" stroke-linecap="round" stroke-linejoin="round"/>
<path d="M32.6126 32.625H32.6329" stroke="white" stroke-width="3" stroke-linecap="round" stroke-linejoin="round"/>
<path d="M21.3626 21.375H21.3829" stroke="white" stroke-width="3" stroke-linecap="round" stroke-linejoin="round"/>
</svg>
