<svg width="21" height="21" viewBox="0 0 21 21" fill="none" xmlns="http://www.w3.org/2000/svg">
<path d="M4.95508 16.6007C3.90906 17.0754 2.79304 17.3775 1.65039 17.4952C1.57495 17.5031 1.49885 17.4888 1.43139 17.4541C1.36393 17.4194 1.30803 17.3658 1.27051 17.2999C0.423831 15.8077 0.14551 13.9513 0.48926 11.9142C0.927737 9.28526 2.35352 6.65342 4.50489 4.50205C6.65625 2.35069 9.29004 0.924904 11.917 0.486427C14.1426 0.11631 16.1523 0.486428 17.707 1.52158C17.7707 1.56337 17.8207 1.62283 17.851 1.69265C17.8813 1.76248 17.8905 1.83964 17.8775 1.91464C17.8645 1.98964 17.83 2.05922 17.778 2.11482C17.726 2.17043 17.6589 2.20964 17.585 2.22764C16.8531 2.40209 16.1396 2.64603 15.4541 2.95615C13.3281 3.92295 10.6104 5.98936 9.73926 10.3487C9.14258 13.3058 7.53418 15.4093 4.95508 16.6007ZM19.7295 3.70127C19.692 3.63551 19.6363 3.58205 19.569 3.54737C19.5018 3.5127 19.4259 3.49831 19.3506 3.50596C18.2075 3.62292 17.091 3.92504 16.0449 4.40049C13.4658 5.5919 11.8574 7.69541 11.2656 10.6505C10.3936 15.0099 7.67676 17.0763 5.55078 18.0431C4.86531 18.3532 4.15178 18.5971 3.41992 18.7716C3.34431 18.7886 3.27548 18.8278 3.22219 18.8841C3.1689 18.9404 3.13357 19.0113 3.12069 19.0877C3.10781 19.1642 3.11797 19.2427 3.14986 19.3134C3.18176 19.384 3.23395 19.4436 3.29981 19.4845C4.45899 20.2579 5.87012 20.6563 7.43555 20.6563C7.98925 20.6547 8.54188 20.6077 9.08789 20.5157C11.7158 20.0772 14.3486 18.6515 16.5 16.5001C18.6514 14.3487 20.0771 11.7149 20.5156 9.08799C20.8516 7.05088 20.5762 5.19346 19.7295 3.70127Z" fill="#9E624C"/>
</svg>
