<svg width="50" height="50" viewBox="0 0 50 50" fill="none" xmlns="http://www.w3.org/2000/svg">
<path d="M45.6874 14.0833L38.6666 42.2709C38.1666 44.375 36.2916 45.8333 34.125 45.8333H6.74994C3.60411 45.8333 1.35414 42.7498 2.29164 39.729L11.0625 11.5626C11.6666 9.60423 13.4792 8.24988 15.5208 8.24988H41.1458C43.125 8.24988 44.7708 9.45822 45.4583 11.1249C45.8541 12.0207 45.9374 13.0416 45.6874 14.0833Z" stroke="white" stroke-width="3" stroke-miterlimit="10"/>
<path d="M33.3333 45.8333H43.2916C45.9791 45.8333 48.0833 43.5625 47.8958 40.875L45.8333 12.5" stroke="white" stroke-width="3" stroke-miterlimit="10" stroke-linecap="round" stroke-linejoin="round"/>
<path d="M20.1666 13.2916L22.3333 4.29175" stroke="white" stroke-width="3" stroke-miterlimit="10" stroke-linecap="round" stroke-linejoin="round"/>
<path d="M34.125 13.3126L36.0833 4.271" stroke="white" stroke-width="3" stroke-miterlimit="10" stroke-linecap="round" stroke-linejoin="round"/>
<path d="M16.0417 25H32.7084" stroke="white" stroke-width="3" stroke-miterlimit="10" stroke-linecap="round" stroke-linejoin="round"/>
<path d="M13.9584 33.3334H30.625" stroke="white" stroke-width="3" stroke-miterlimit="10" stroke-linecap="round" stroke-linejoin="round"/>
</svg>
